<?xml version="1.0" encoding="UTF-8"?>
<svg xmlns="http://www.w3.org/2000/svg" version="1.1" viewBox="0 0 415.4 77.7">
  <defs>
    <style>
      .cls-1 {
        fill: #323037;
      }

      .cls-2 {
        fill: #fef8eb;
      }
    </style>
  </defs>
  <!-- Generator: Adobe Illustrator 28.7.1, SVG Export Plug-In . SVG Version: 1.2.0 Build 142)  -->
  <g>
    <g id="Layer_1">
      <g>
        <path class="cls-1" d="M246.2,64.1c3-1.3,5.3-3.2,7-5.6,1.7-2.4,2.6-5.2,2.6-8.3s-.9-4.9-2.7-6.7c0,0,0,0-.1-.1l-.9-.9c2-.4,3.6-1.7,4.6-3.9,1-2.1,1.5-4.5,1.5-7.2s-1.1-5.2-2.4-6.5h0s-9.9-9.9-9.9-9.9h0c-.3-.3-.7-.6-1-.9-2.1-1.4-5.2-2.1-9.5-2.1s-7.4.6-10.5,1.8c-2.1.8-3.9,1.8-5.5,3.1s-.9.8-1.3,1.2l-3-3c-.1-.1-.2-.2-.3-.3-1.4-1.2-3.3-1.9-5.5-1.9s-3.2.3-4.7,1c-.8.4-1.6.8-2.2,1.3s-1,.9-1.4,1.5c0,0,0,0,0,0l-2.7-2.7c-1.3-1.3-3.1-2-5.3-2s-5.6.9-8.4,2.6c-.9.5-1.7,1.1-2.4,1.7s-.1,0-.2.1l-2.9-2.9c-.7-.7-2-1.5-3.9-1.5-.4,0-1.2,0-3.1.5h0c-1.6.4-2.9.6-3.8.6-1.2,0-2.8-.1-4.7-.3-3.2-.4-6.1-.6-8.7-.6s-3.7.7-5.4,2-.1,0-.2.1c-.4.4-.8.8-1.2,1.2l-2-2c-.7-.7-2-1.5-3.9-1.5s-1.2,0-3.1.5h0c-1.6.4-2.9.6-3.8.6s-2.8-.1-4.7-.3c-3.2-.4-6.1-.6-8.7-.6s-3.2.5-4.7,1.5l-3.7-3.7c-.2-.2-.4-.4-.6-.5-1.6-1.2-3.8-1.8-6.8-1.8s-5.8,0-9.8-.1c-3.5,0-5.7-.1-6.8-.1-8.7,0-15.5,1.9-20.3,5.7,0,0-.2.1-.2.2-4.8,3.9-7.2,9.3-7.2,16s1.3,9,3.8,12c.2.3.5.5.7.7l9.9,9.9c1.1,1.1,2.2,1.9,3.6,2.5.1,2.1.8,3.7,1.9,4.8,0,0,9.9,9.9,9.9,9.9.2.2.3.3.5.5,1.5,1.1,3.8,1.7,7.1,1.7h9.3c3.3,0,6-1,8.1-2.9,1.2-1.1,2.1-2.5,2.6-4.1h.1c.7.9,2,1.6,3.8,1.6s1.9-.2,3.3-.6c2-.5,3.1-.6,3.7-.6s1.8,0,4.3.5h0s2.7.4,2.7.4c1.5.2,3.2.3,5.1.3,2.9,0,5.4-.9,7.3-2.7.3-.3.6-.6.8-.9l2,2c.7.7,2,1.5,3.8,1.5s1.9-.2,3.3-.6c2-.5,3.1-.6,3.7-.6s1.8,0,4.3.5h0s2.7.4,2.7.4c1.5.2,3.2.3,5.1.3,2.9,0,5.4-.9,7.3-2.7,1.1-1,2-2.2,2.7-3.5l4,4c.2.2.4.3.6.5,1.6,1.3,3.7,1.9,6.2,1.9s4.9-.7,7.3-2.2c2.3-1.4,4.2-3.4,5.6-5.7,1.5-2.4,2.2-5,2.2-7.8s-.3-2.5-.9-3.3-.3-.5-.6-.7l-2.4-2.4c0-.4.2-1,.4-1.7,0-.2.1-.4.2-.5l1.3,1.3c.1.1.2.2.3.3.5.4,1,.6,1.7.8,0,.2,0,.4,0,.6,0,3.2,1,5.8,2.9,7.7l9.9,9.9c.4.4.7.7,1.2,1,2.5,1.9,6.3,2.8,11.6,2.8s6.8-.7,9.7-2Z"/>
        <path class="cls-1" d="M89.3,61.2c-3.3,0-5.6-.6-7.1-1.7-1.6-1.3-2.5-3.3-2.5-6.2s.3-3.9,1.1-5.4c.6-1.3,1.6-2.6,2.9-4.1,0,0,0,0,0-.1,0,0,0,0,0,0-2.2,1.3-4.7,1.9-7.5,1.9-4.4,0-8-1.5-10.6-4.6-2.5-2.9-3.8-7-3.8-12s2.5-12.2,7.4-16.1c4.8-3.8,11.6-5.7,20.3-5.7s3.3,0,6.8.1c4,0,7.3.1,9.8.1s5.2.6,6.8,1.8c1.7,1.3,2.5,3.2,2.6,5.8.3-.3.6-.6.9-.9,1.7-1.4,3.5-2.1,5.5-2.1s5.5.2,8.7.6c1.9.2,3.5.3,4.7.3s2.2-.2,3.8-.6h0c1.9-.4,2.7-.5,3.1-.5,2.2,0,3.4.9,4.1,1.7.6.7,1,1.5,1.2,2.6.5-.7,1.2-1.4,1.8-2,1.7-1.4,3.5-2.1,5.5-2.1s5.5.2,8.7.6c1.9.2,3.5.3,4.7.3s2.2-.2,3.8-.6h0c1.9-.4,2.7-.5,3.1-.5,2.2,0,3.4.9,4.1,1.7.8.9,1.3,2.2,1.4,4,1.2-1.2,2.5-2.2,3.9-3.1,2.7-1.7,5.5-2.6,8.4-2.6s4.1.8,5.5,2.3c.9,1,1.5,2.2,1.8,3.5.2-.4.4-.7.7-1.1.9-1.2,2.1-2.2,3.6-2.8,1.4-.6,3-1,4.7-1s4.1.6,5.5,1.9c1.3,1.1,2,2.6,2.2,4.5,0,0,0,0,0,0,2-2.4,4.6-4.3,7.9-5.5,3.2-1.2,6.7-1.8,10.5-1.8s7.5.7,9.5,2.1c1.6,1.1,3.4,3.2,3.4,7.3s-.5,5.1-1.5,7.2c-1,2.2-2.6,3.5-4.7,3.9.4.3.7.7,1.1,1,1.8,1.8,2.7,4.1,2.7,6.7s-.9,5.9-2.6,8.3c-1.7,2.4-4.1,4.3-7,5.6-2.9,1.3-6.2,2-9.7,2-5.3,0-9.1-.9-11.6-2.8-2.7-2-4.1-4.9-4.1-8.7s.5-4.3,1.6-6.1c1.2-2.2,2.9-3,4.3-3.3-.2-.2-.5-.5-.7-.7-1.3-1.4-2-3.3-2.1-5.5-1.1,1.4-2.4,2.5-3.9,3.5-2.1,1.3-4.4,2-6.7,2s-3.1-.4-4-1.1c-.5-.4-1.1-1.1-1.4-2.2,0,.3-.2.7-.4,1.2-.4,1.2-.4,1.9-.4,2.2s0,.5,0,.6c0,0,0,0,0,0,2.4.6,3.8,2.5,3.8,5.3s-.7,5.4-2.2,7.8c-1.4,2.4-3.3,4.3-5.6,5.7-2.3,1.5-4.8,2.2-7.3,2.2s-4.6-.6-6.2-1.9c-1.7-1.4-2.6-3.5-2.6-6.2s.2-2.5.5-3.7c.3-1.1.7-2.3,1.3-3.9.5-1.3.8-2.3,1-3,.2-.6.2-1.2.2-1.9s0-.3,0-.3c-.1-.1-.4-.4-1.2-.9-1-.7-1.8-1.4-2.4-2.2-.5-.7-.9-1.6-1-2.6-1.8,2-4.2,3.9-7.1,5.8-.1,0-.3.2-.4.3,0,0,.2-.1.2-.1h0c.6-.4,1.3-.7,1.9-1,.9-.4,1.7-.6,2.5-.6s2.4.4,3.6,2.2c.8,1.2,1.2,2.7,1.2,4.6s-.4,4.3-1.1,6.6c-.8,2.4-2,4.4-3.8,6.1-1.9,1.8-4.3,2.7-7.3,2.7s-3.5-.1-5.1-.3l-2.7-.4h0c-2.5-.4-3.8-.5-4.3-.5s-1.7,0-3.7.6c-1.3.4-2.4.6-3.3.6-2.2,0-3.5-1-4.2-1.9-.5-.6-.8-1.3-1-2.2-.4.5-.9,1-1.4,1.5-1.9,1.8-4.3,2.7-7.3,2.7s-3.5-.1-5.1-.3l-2.7-.4h0c-2.5-.4-3.8-.5-4.3-.5s-1.7,0-3.7.6c-1.3.4-2.4.6-3.3.6-2,0-3.2-.8-3.9-1.6-.5,1.6-1.4,3-2.6,4.1-2.1,1.9-4.8,2.9-8.1,2.9h-9.3ZM108,44.6c0,.1.1.2.2.3.4-1.4,1-2.8,1.8-4.1,1.5-2.6,4.1-5,8-7.2-.7.3-1.4.4-2.1.4s-2.5-.3-3.6-2.4c-.6-1.2-.9-2.7-.9-4.6s0-1.9.2-2.8c-1,1.3-1.9,2.5-2.5,3.7-.7,1.3-1.2,3-1.6,5.2l-.6,3.1c-.2,1.1-.3,2.2-.3,3.3s.1,2,.3,2.6c.3.7.6,1.5,1.2,2.3ZM139.6,33.8c1,0,2.4.4,3.6,2.2.5.8.9,1.8,1,3,1.6-1.9,3.8-3.6,6.7-5.3-.7.3-1.4.4-2.1.4s-2.5-.3-3.6-2.4c-.6-1.1-.9-2.6-.9-4.5-2,2.8-4.9,5.5-8.9,8.1-.1,0-.3.2-.4.3,0,0,.2-.1.2-.1h0c.6-.4,1.3-.7,1.9-1,.9-.4,1.7-.6,2.5-.6ZM200,23.7c0,.4-.2.8-.3,1.2,0,.2-.1.4-.2.6.4-.3.8-.6,1.3-.8-.3-.3-.6-.7-.8-1.1ZM85.3,22.3c1.1.4,2,1,2.8,1.9-.1-.3-.3-.6-.5-.9-.5-.6-1.3-.9-2.3-1.1Z"/>
      </g>
      <path class="cls-2" d="M98.6,59.2c2.8,0,5-.8,6.6-2.3,1.7-1.6,2.5-3.8,2.5-6.6s-.1-1.7-.4-2.3c-.2-.7-.6-1.4-1.1-2.2-.6-1-1.1-1.9-1.4-2.8-.3-.9-.5-2-.5-3.3s.1-2.5.4-3.7l.6-3.1c.4-2.4,1-4.4,1.8-5.9.8-1.5,1.8-3,3.1-4.5,1.1-1.4,1.9-2.5,2.3-3.5.5-1,.7-2.2.7-3.7s-.6-3.5-1.8-4.4c-1.2-.9-3-1.3-5.5-1.3s-5.8,0-9.9-.1c-3.5,0-5.7-.1-6.7-.1-8.2,0-14.5,1.8-19,5.3-4.4,3.5-6.6,8.3-6.6,14.5s1.1,8,3.3,10.6c2.2,2.6,5.2,3.9,9,3.9s4.6-.5,6.4-1.6c1.8-1.1,3.3-2.5,4.2-4.4,1-1.8,1.5-3.9,1.5-6.1,0-2.3-.5-4.1-1.5-5.4-1-1.3-2.3-2-3.9-2s-.9,0-1.4.2c-.5.1-.9.2-1.1.2-.7,0-1.1-.4-1.1-1.2s.5-1.7,1.4-2.2c1-.5,2.2-.8,3.7-.8s3.6.6,4.7,1.8c1.1,1.2,1.6,3,1.6,5.4s0,2.1-.3,3.2l-.8,5.5c-.3,2.1-.8,3.8-1.5,5-.7,1.2-1.7,2.6-2.9,4.1-1.2,1.4-2,2.6-2.6,3.7-.6,1.1-.8,2.6-.8,4.4s.5,3.7,1.6,4.6c1.1.8,3,1.3,5.9,1.3h9.3ZM132.3,53.8c2.4,0,4.3-.7,5.8-2.1,1.5-1.4,2.6-3.2,3.2-5.2.7-2,1-4,1-5.9s-.3-2.7-.8-3.5c-.5-.8-1.2-1.2-1.9-1.2s-1,.1-1.6.4c-.6.3-1.2.6-1.8.9-1.1.7-2.1,1.2-3,1.6-.9.4-1.9.5-3,.5s-1.4,0-1.8-.2c-.4-.1-.6-.3-.6-.7s.1-.5.4-.8c.3-.3.9-.7,2-1.5,1.1-.7,2.4-1.6,4.1-2.7,3.9-2.6,6.8-5.2,8.6-7.9,1.8-2.7,2.7-5.1,2.7-7.3s-.3-2.6-.9-3.2c-.6-.7-1.4-1-2.6-1s-1.4.1-2.7.4c-1.8.4-3.2.6-4.3.6s-2.9-.1-4.9-.4c-3.1-.4-5.9-.6-8.4-.6s-2.9.5-4.2,1.6c-1.3,1.1-2.3,2.6-3.1,4.6-.8,1.9-1.2,4.1-1.2,6.6s.2,2.8.7,3.6c.4.8,1,1.3,1.7,1.3s.9-.1,1.4-.3c.5-.2,1.1-.5,1.9-.9,1.1-.7,2.1-1.2,3.1-1.5.9-.4,2-.5,3.2-.5s2,.3,2,.8-.2.7-.5,1c-.4.3-1.2.9-2.5,1.8-1.3.8-3.1,1.9-5.2,3.2-3.6,2.1-6.1,4.3-7.4,6.6-1.4,2.3-2,4.6-2,7s.3,3,.9,3.7c.6.7,1.4,1.1,2.6,1.1s1.6-.2,2.7-.5c1.8-.4,3.2-.6,4.2-.6s2.5.2,4.7.6c.3,0,1.2.2,2.7.4,1.4.2,3,.3,4.8.3ZM165.2,53.8c2.4,0,4.3-.7,5.8-2.1,1.5-1.4,2.6-3.2,3.2-5.2.7-2,1-4,1-5.9s-.3-2.7-.8-3.5c-.5-.8-1.2-1.2-1.9-1.2s-1,.1-1.6.4c-.6.3-1.2.6-1.8.9-1.1.7-2.1,1.2-3,1.6-.9.4-1.9.5-3,.5s-1.4,0-1.8-.2c-.4-.1-.6-.3-.6-.7s.1-.5.4-.8c.3-.3.9-.7,2-1.5,1.1-.7,2.4-1.6,4.1-2.7,3.9-2.6,6.8-5.2,8.6-7.9,1.8-2.7,2.7-5.1,2.7-7.3s-.3-2.6-.9-3.2c-.6-.7-1.4-1-2.6-1s-1.4.1-2.7.4c-1.8.4-3.2.6-4.3.6s-2.9-.1-4.9-.4c-3.1-.4-5.9-.6-8.4-.6s-2.9.5-4.2,1.6c-1.3,1.1-2.3,2.6-3.1,4.6-.8,1.9-1.2,4.1-1.2,6.6s.2,2.8.7,3.6c.4.8,1,1.3,1.7,1.3s.9-.1,1.4-.3c.5-.2,1.1-.5,1.9-.9,1.1-.7,2.1-1.2,3.1-1.5.9-.4,2-.5,3.2-.5s2,.3,2,.8-.2.7-.5,1c-.4.3-1.2.9-2.5,1.8s-3.1,1.9-5.2,3.2c-3.6,2.1-6.1,4.3-7.4,6.6-1.4,2.3-2,4.6-2,7s.3,3,.9,3.7c.6.7,1.4,1.1,2.6,1.1s1.6-.2,2.7-.5c1.8-.4,3.2-.6,4.2-.6s2.5.2,4.7.6c.3,0,1.2.2,2.7.4,1.4.2,3,.3,4.8.3ZM185.9,54c2.1,0,4.2-.6,6.2-1.9,2-1.3,3.6-2.9,4.9-5s1.9-4.3,1.9-6.7-.7-2.9-2.2-3.2c-.6-.1-1-.4-1.3-.7-.3-.4-.4-1-.4-1.9s.2-1.7.5-2.8c.4-1.1.6-1.8.7-2.1.7-1.9,1.2-3.6,1.5-5.2.4-1.6.6-3.2.6-4.8s-.5-2.9-1.4-4c-1-1.1-2.3-1.6-4-1.6-2.4,0-4.8.7-7.3,2.2-2.4,1.5-4.4,3.4-5.9,5.6-1.5,2.2-2.3,4.4-2.3,6.4s.2,1.9.7,2.5c.4.6,1.1,1.2,1.9,1.7.7.5,1.3,1,1.6,1.4.3.4.5.9.5,1.6s-.1,1.6-.3,2.4c-.2.8-.6,1.8-1.1,3.2-.6,1.5-1,2.7-1.2,3.7-.3,1-.4,2-.4,3.2,0,2.1.6,3.6,1.8,4.6,1.2,1,2.8,1.4,4.9,1.4ZM203.3,32.3c1.9,0,3.8-.5,5.6-1.6,1.8-1.1,3.2-2.5,4.4-4.4,1.1-1.8,1.7-3.7,1.7-5.7s-.5-3.3-1.6-4.2c-1.1-.9-2.4-1.4-4.2-1.4s-2.7.3-3.8.8c-1.2.5-2.1,1.2-2.8,2.2-.7.9-1,2-1,3.1s.4,2,1.2,2.6c.8.5,2.1.8,4,.8s.8,0,1,.1c.2,0,.3.2.3.5,0,.8-1.4,1.3-4.1,1.3s-2.4.3-3.1.9c-.7.6-1,1.5-1,2.5s.3,1.5.8,2c.5.4,1.4.6,2.7.6ZM226.6,54c3.3,0,6.2-.6,8.9-1.8,2.6-1.2,4.7-2.8,6.2-4.9,1.5-2.1,2.2-4.5,2.2-7.1s-.7-3.9-2.1-5.3c-1.4-1.4-3.3-2.8-5.8-4.3-1.7-1.1-3-1.9-3.7-2.6-.7-.7-1.1-1.4-1.1-2.2s.1-.9.4-1.2c.3-.3.6-.5,1.1-.5s.9.2,1.4.6c.4.4,1,1,1.6,1.8.9,1.2,1.7,2.1,2.6,2.8.8.7,1.8,1,2.9,1,1.7,0,3-.9,3.9-2.7.8-1.8,1.3-3.9,1.3-6.3s-.8-4.4-2.5-5.6c-1.7-1.2-4.5-1.8-8.3-1.8s-6.9.5-9.8,1.6c-2.9,1.1-5.3,2.7-7,4.9-1.7,2.1-2.6,4.7-2.6,7.7s.5,3.6,1.6,4.8c1.1,1.2,2.3,2.1,3.7,2.6,1.4.5,3.2,1.1,5.3,1.6,1.5.3,2.6.6,3.3.8.7.3,1.1.7,1.1,1.2,0,.9-1,1.3-2.9,1.3s-2.5-.2-3.4-.5c-.9-.4-1.9-.9-2.9-1.5-.8-.5-1.5-.8-2-1.1-.5-.2-1.1-.4-1.8-.4-1.6,0-2.8.8-3.7,2.3-.9,1.5-1.3,3.2-1.3,5.1,0,3.1,1.1,5.4,3.2,7,2.1,1.6,5.6,2.4,10.4,2.4Z"/>
      <path class="cls-1" d="M268.5,57.2c-2-2.8-3-6.6-3-11.4s1.2-11.5,3.6-16.5c2.4-5,5.8-8.9,10.1-11.8,4.3-2.9,9.3-4.3,14.8-4.3s7.2.8,9.4,2.5c2.2,1.7,3.3,3.9,3.3,6.7s-.7,5.8-2,7.7c-1.3,1.9-3.3,2.8-6,2.8s-2.5-.3-3.4-.9c-.9-.6-1.9-1.5-2.8-2.7-.8-.9-1.5-1.5-2-1.9-.5-.4-1.2-.6-1.9-.6-1.5,0-2.8.8-3.8,2.4-1.1,1.6-1.9,3.5-2.5,5.8-.6,2.3-.8,4.4-.8,6.3s.5,3.8,1.4,5c1,1.1,2.3,1.7,4,1.7s2.1-.2,2.8-.6c.7-.4,1-.8,1-1.4s-.1-.5-.4-.7c-.2-.2-.6-.3-1.2-.5-1-.4-1.8-.8-2.4-1.4-.6-.6-.9-1.5-.9-2.8,0-1.9.5-3.5,1.5-4.7,1-1.2,2.4-1.8,4.1-1.8h11.4c1.5,0,2.7.3,3.4,1,.8.6,1.2,1.6,1.2,2.8s-.2,2.4-.6,3.2c-.4.8-1,1.9-1.9,3-.8,1.1-1.5,2.1-2,3-.5.9-.8,2-1.1,3.3l-1.1,6c-.6,3.3-2.6,4.9-6,4.9s-2.3-.2-3-.7c-.7-.5-1.3-1.1-1.9-1.9-.4-.5-.6-.8-.9-1-.2-.2-.5-.3-.9-.3s-.7.1-1.1.4c-.4.2-.9.5-1.4.8-1.4.9-2.8,1.6-4,2.1-1.3.5-2.9.8-4.8.8-3.4,0-6.1-1.4-8.1-4.2ZM320.2,61c-4.6,0-7-1.6-7-4.8s.4-4,1.1-5.1c.8-1.1,1.8-2.1,3-2.8.7-.5,1.1-.9,1.4-1.1.2-.2.4-.6.4-1s0-.7-.3-.9c-.2-.2-.5-.4-.9-.7-.7-.4-1.3-.9-1.8-1.5-.5-.5-.9-1.4-1.2-2.5l-2.1-6.9c-.4-1.3-.8-2.4-1.3-3.2-.4-.8-1-1.8-1.7-2.8-.7-.9-1.1-1.7-1.4-2.3-.3-.7-.4-1.5-.4-2.6,0-2.9.8-5.1,2.3-6.6s3.8-2.3,6.8-2.3h6.7c2.4,0,4.2.4,5.4,1.3,1.2.9,1.8,2.2,1.8,4s-.2,2.5-.5,3.5c-.3,1-.8,2.3-1.5,3.7-.3.6-.6,1.2-.8,1.7-.2.6-.3,1.1-.3,1.5,0,.7,0,1.3.3,1.9l.5,1.8c.3,1.2.9,1.9,1.7,1.9s.8-.1,1.1-.4c.3-.3.6-.7,1-1.3l.7-1.3c.6-1.1.9-2,.9-2.8s-.2-1.5-.7-2.6c-.4-.8-.6-1.4-.8-2-.2-.6-.2-1.2-.2-2,0-2.9.8-5.2,2.4-6.8,1.6-1.6,3.9-2.3,7-2.3h5.6c2.3,0,4,.4,5.2,1.2,1.1.8,1.7,2.1,1.7,3.8,0,2.2-.4,4-1.1,5.3-.7,1.3-1.8,2.8-3.4,4.4-1.9,2.1-3.3,3.8-4.3,5.2l-4.5,6.7c-.8,1.2-1.5,2-2.3,2.6-.8.6-1.6,1.1-2.6,1.5-.6.3-1.1.6-1.3.8-.3.2-.4.6-.4,1s0,.7.3.9c.2.2.5.5.9.8.6.5,1.1,1,1.5,1.6.4.6.5,1.4.5,2.6,0,5.8-3.1,8.7-9.3,8.7h-8ZM353.5,61c-1.6,0-2.8-.4-3.7-1.3-.8-.9-1.3-2.1-1.3-3.6s.4-3.4,1.1-4.7c.7-1.3,1.8-2.8,3.2-4.4,1.1-1.3,2-2.5,2.7-3.6.7-1.1,1.2-2.3,1.6-3.6l.8-2.8c.5-1.6.7-3.1.7-4.4s-.1-1.6-.3-2.2c-.2-.6-.5-1.4-1-2.4-.5-.9-.9-1.8-1.1-2.5-.2-.8-.4-1.7-.4-2.8,0-2.8.7-4.9,2.2-6.4,1.5-1.5,3.6-2.2,6.5-2.2h10.8c1.8,0,3.2.1,4,.4.8.3,1.5.9,1.8,1.8.4.9.6,2.4.7,4.4v3.2c.2.5.3.9.4,1.2.1.2.3.4.6.4s.6-.1.8-.3c.2-.2.4-.6.7-1.2l1.5-3.4c.9-2,1.6-3.4,2.3-4.2.6-.8,1.5-1.4,2.5-1.7,1.1-.3,2.7-.5,4.9-.5h8c2.3,0,3.9.5,4.8,1.4.9.9,1.4,2.3,1.4,4.1s-.3,2.9-.8,3.9c-.5,1-1.3,2.2-2.4,3.5-1.3,1.5-2.3,3-3,4.4-.7,1.4-1.1,3.3-1.1,5.8v2.8c-.1,1.7,0,3.1.4,4.2.4,1,.9,2.1,1.6,3.2.6,1,1,1.9,1.3,2.6.3.8.4,1.7.4,2.9,0,2.4-.7,4.4-2,6-1.4,1.6-3.1,2.4-5.3,2.4h-10.1c-2.3,0-3.9-.4-4.9-1.3-1-.9-1.5-2.2-1.5-3.8s.3-3.3.8-4.3c.6-1,1.4-2.2,2.6-3.5,1.4-1.5,2.5-3,3.2-4.4.8-1.5,1.2-3.6,1.3-6.4v-4.2c.1,0,.1-.9.1-.9,0-.6,0-1.1-.2-1.3-.1-.2-.3-.4-.7-.4s-.6.2-.8.5c-.2.4-.5,1.1-.8,2.1l-5.6,16.1c-.6,1.7-1.4,2.9-2.4,3.5-1,.6-2.5,1-4.4,1s-2,0-2.6-.3c-.6-.2-1.1-.6-1.5-1.2-.4-.6-.5-1.6-.5-3l-.3-16.1c0-1-.1-1.7-.3-2.1-.1-.4-.4-.6-.8-.6s-.7.2-.9.5c-.2.4-.4,1-.6,2l-.9,4.2c-.4,1.6-.5,3.1-.5,4.5s.1,2.4.4,3.3c.3.8.7,1.9,1.3,3.1.5,1,.9,1.9,1.1,2.6.2.7.4,1.5.4,2.5,0,2.5-.7,4.4-2,5.8-1.4,1.3-3.3,2-5.9,2h-8.6Z"/>
      <g>
        <path class="cls-1" d="M33.5,62.7c13.1,0,23.7-10.6,23.7-23.7s-2.7-12.5-7-16.8h0s0,0,0,0l-4.3-4.3h0s0,0,0,0c-4.3-4.3-10.2-7-16.8-7s-10.9,2-15,5.4-8.7,11-8.7,18.4,2.7,12.5,7,16.8c0,0,0,0,0,0l4.3,4.3h0c4.3,4.3,10.2,7,16.8,7Z"/>
        <path class="cls-1" d="M29.2,58.4c-13.1,0-23.7-10.6-23.7-23.7S16.1,10.9,29.2,10.9s23.7,10.6,23.7,23.7-10.6,23.7-23.7,23.7Z"/>
      </g>
      <circle class="cls-2" cx="29.2" cy="34.6" r="21.9"/>
      <path class="cls-1" d="M45.6,30.2c.2-1.2,0-2.8-.9-3.9-.6-.7-1.4-1-2.3-1s-1.4.3-2,.6c-.6.3-1.2.6-2,.6s-.9-.5-1.6-1c-1-.8-2.5-1.9-4.4-2.5-.6-.2-1.1-.3-1.5-.4,0,0,0,0,0,0-.6-.1-1.2-.2-1.9-.2-5,0-10.9,3.1-12.1,9.8-.2,1.3-.4,2.6-.5,3.9-.4,3.3-.7,6.4-2.2,7.9-.2.2-.2.6,0,.8.1.1.3.2.4.2,0,0,4.4,0,5.2,0,.7,3.1,3,5.2,6.1,5.2s8.2-1.5,8.2-8.6-.2-2.5-.6-3.7c0-.7.6-1.3,1.6-2,1.3-1.1,3-2.4,3-5.3s-.3-2.4-.8-3.4c.4.2.7.4,1.1.4.8,0,1.4-.2,1.9-.4.3.8.9,1.4,1.7,1.7.8.3,1.7.1,2.4-.4,0,.5,0,1.1,0,1.5-.2.9-.7,2-1,2.5,0,0-.1,0-.2,0,0,0-.1,0-.2.1,0,0,0,0-.1,0,0,0,0,0,0,0-.2,0-.3.1-.5.1,0,0,0,0-.1,0,0,0,0,0,0,0,0,0-.2,0-.3,0-.2,0-.4,0-.5,0,0,0,0,0-.1,0,0,0-.1,0-.2,0h0s0,0-.1,0c0,0,0,0,0,0,0,0,0,0,0,0,0,0,0,0,0,0,0,0,0,0,0,0,0,0,0,0,0,0,0,0,0,0,0,0,0,0,0-.1-.1-.2,0,0,0,0,0,0,0,0,0-.1,0-.2,0-.4-.5-.6-.9-.5-.4.1-.6.5-.5.9.4,1.7,2.3,2.1,3.8,1.7,0,.2-.2.5-.5.9-.8,1.2-2.1,1.8-3.3,2.5-1.6.8-3.2,1.6-3.2,3.6s.6,2.9.7,3c.1.3.4.5.7.4.3-.1.5-.4.4-.7-.2-.5-.6-1.9-.6-2.6,0-1.3.9-1.8,2.6-2.6,1.3-.6,2.8-1.4,3.7-2.8.7-1.1.8-1.8.8-2.3,0,0,0-.2,0-.3.6-.9,1.2-2.5,1.3-3ZM31.9,29.9c0-1.8,1.1-3.3,2.4-3.3s2.4,1.5,2.4,3.3-1.1,3.3-2.4,3.3-2.4-1.5-2.4-3.3ZM36.3,29.5c0-1-.5-1.8-1.2-1.8s-1.2.8-1.2,1.8.5,1.8,1.2,1.8,1.2-.8,1.2-1.8ZM35.5,29.8c-.3,0-.5-.3-.5-.7s.2-.7.5-.7.5.3.5.7-.2.7-.5.7Z"/>
    </g>
  </g>
</svg>